<svg width="205" height="22" xmlns="http://www.w3.org/2000/svg">

 <g>
  <title>background</title>
  <rect fill="none" id="canvas_background" height="602" width="802" y="-1" x="-1"/>
 </g>
 <g>
  <title>Layer 1</title>
  <path id="svg_1" fill="#222222" d="m14.6722,44.716c0.2,0 0.368,0.072 0.504,0.216l1.428,1.524c-0.704,0.896 -1.58,1.576 -2.628,2.04c-1.04,0.464 -2.28,0.696 -3.72001,0.696c-1.304,0 -2.476,-0.22 -3.516,-0.66c-1.04,-0.448 -1.924,-1.068 -2.652,-1.86c-0.728,-0.792 -1.288,-1.732 -1.68,-2.82c-0.392,-1.088 -0.588,-2.276 -0.588,-3.564c0,-0.864 0.092,-1.684 0.276,-2.46c0.192,-0.784 0.468,-1.504 0.828,-2.16c0.36,-0.656 0.792,-1.248 1.296,-1.776c0.512,-0.528 1.088,-0.976 1.728,-1.344c0.64,-0.376 1.336,-0.66 2.088,-0.852c0.76,-0.2 1.568,-0.3 2.424,-0.3c0.64001,0 1.24401,0.056 1.81201,0.168c0.576,0.112 1.112,0.268 1.608,0.468c0.496,0.2 0.952,0.444 1.368,0.732c0.424,0.28 0.804,0.588 1.14,0.924l-1.212,1.656c-0.072,0.104 -0.164,0.196 -0.276,0.276c-0.112,0.08 -0.264,0.12 -0.456,0.12c-0.192,0 -0.388,-0.068 -0.588,-0.204c-0.192,-0.136 -0.432,-0.288 -0.72,-0.456c-0.28,-0.168 -0.636,-0.32 -1.068,-0.456c-0.424,-0.136 -0.964,-0.204 -1.62001,-0.204c-0.728,0 -1.396,0.132 -2.004,0.396c-0.608,0.264 -1.132,0.648 -1.572,1.152c-0.432,0.496 -0.768,1.108 -1.008,1.836c-0.24,0.728 -0.36,1.556 -0.36,2.484c0,0.936 0.128,1.772 0.384,2.508c0.264,0.728 0.62,1.344 1.068,1.848c0.456,0.504 0.984,0.888 1.584,1.152c0.608,0.256 1.256,0.384 1.944,0.384c0.408,0 0.77601,-0.02 1.10401,-0.06c0.336,-0.04 0.644,-0.108 0.924,-0.204c0.288,-0.096 0.556,-0.22 0.804,-0.372c0.256,-0.152 0.512,-0.344 0.768,-0.576c0.088,-0.072 0.18,-0.132 0.276,-0.18c0.096,-0.048 0.2,-0.072 0.312,-0.072zm16.0305,-8.28c0.928,0 1.772,0.148 2.532,0.444c0.76,0.296 1.412,0.72 1.956,1.272c0.544,0.544 0.964,1.208 1.26,1.992c0.296,0.784 0.444,1.668 0.444,2.652c0,0.984 -0.148,1.872 -0.444,2.664c-0.296,0.784 -0.716,1.452 -1.26,2.004c-0.544,0.552 -1.196,0.976 -1.956,1.272c-0.76,0.296 -1.604,0.444 -2.532,0.444c-0.936,0 -1.788,-0.148 -2.556,-0.444c-0.76,-0.296 -1.412,-0.72 -1.956,-1.272c-0.544,-0.552 -0.968,-1.22 -1.272,-2.004c-0.296,-0.792 -0.444,-1.68 -0.444,-2.664c0,-0.984 0.148,-1.868 0.444,-2.652c0.304,-0.784 0.728,-1.448 1.272,-1.992c0.544,-0.552 1.196,-0.976 1.956,-1.272c0.768,-0.296 1.62,-0.444 2.556,-0.444zm0,10.26c0.944,0 1.644,-0.324 2.1,-0.972c0.456,-0.656 0.684,-1.628 0.684,-2.916c0,-1.28 -0.228,-2.244 -0.684,-2.892c-0.456,-0.656 -1.156,-0.984 -2.1,-0.984c-0.968,0 -1.68,0.328 -2.136,0.984c-0.456,0.648 -0.684,1.612 -0.684,2.892c0,1.288 0.228,2.26 0.684,2.916c0.456,0.648 1.168,0.972 2.136,0.972zm15.4716,2.304l0,-12.372l2.04,0c0.416,0 0.692,0.192 0.828,0.576l0.192,0.804c0.216,-0.224 0.436,-0.432 0.66,-0.624c0.232,-0.192 0.48,-0.356 0.744,-0.492c0.264,-0.144 0.548,-0.256 0.852,-0.336c0.312,-0.08 0.648,-0.12 1.008,-0.12c0.76,0 1.388,0.204 1.884,0.612c0.496,0.4 0.872,0.936 1.128,1.608c0.2,-0.392 0.444,-0.728 0.732,-1.008c0.296,-0.288 0.616,-0.52 0.96,-0.696c0.352,-0.176 0.72,-0.304 1.104,-0.384c0.392,-0.088 0.784,-0.132 1.176,-0.132c0.696,0 1.312,0.104 1.848,0.312c0.536,0.208 0.984,0.516 1.344,0.924c0.368,0.4 0.648,0.892 0.84,1.476c0.192,0.584 0.288,1.248 0.288,1.992l0,7.86l-3.312,0l0,-7.86c0,-1.448 -0.62,-2.172 -1.86,-2.172c-0.28,0 -0.54,0.048 -0.78,0.144c-0.232,0.088 -0.44,0.224 -0.624,0.408c-0.176,0.184 -0.316,0.412 -0.42,0.684c-0.096,0.272 -0.144,0.584 -0.144,0.936l0,7.86l-3.312,0l0,-7.86c0,-0.784 -0.156,-1.34 -0.468,-1.668c-0.304,-0.336 -0.756,-0.504 -1.356,-0.504c-0.384,0 -0.748,0.092 -1.092,0.276c-0.336,0.176 -0.652,0.424 -0.948,0.744l0,9.012l-3.312,0zm28.1156,0l0,-9.996l-0.96,-0.168c-0.248,-0.048 -0.452,-0.136 -0.612,-0.264c-0.152,-0.128 -0.228,-0.312 -0.228,-0.552l0,-1.32l1.8,0l0,-0.816c0,-0.704 0.108,-1.34 0.324,-1.908c0.224,-0.576 0.54,-1.06 0.948,-1.452c0.408,-0.4 0.908,-0.708 1.5,-0.924c0.592,-0.216 1.26,-0.324 2.004,-0.324c0.288,0 0.56,0.02 0.816,0.06c0.264,0.032 0.528,0.084 0.792,0.156l-0.072,1.632c-0.016,0.248 -0.124,0.412 -0.324,0.492c-0.192,0.072 -0.408,0.108 -0.648,0.108c-0.336,0 -0.64,0.036 -0.912,0.108c-0.264,0.072 -0.488,0.196 -0.672,0.372c-0.184,0.168 -0.324,0.4 -0.42,0.696c-0.096,0.288 -0.144,0.648 -0.144,1.08l0,0.72l3.072,0l0,2.304l-2.964,0l0,9.996l-3.3,0zm26.4673,-12.372l-6.672,15.696c-0.104,0.224 -0.232,0.392 -0.384,0.504c-0.144,0.112 -0.376,0.168 -0.696,0.168l-2.46,0l2.34,-4.992l-4.968,-11.376l2.904,0c0.264,0 0.468,0.06 0.612,0.18c0.144,0.12 0.248,0.26 0.312,0.42l2.352,5.916c0.088,0.232 0.164,0.468 0.228,0.708c0.072,0.232 0.14,0.464 0.204,0.696c0.144,-0.472 0.308,-0.944 0.492,-1.416l2.184,-5.904c0.064,-0.176 0.18,-0.32 0.348,-0.432c0.168,-0.112 0.352,-0.168 0.552,-0.168l2.652,0z"/>
  <path id="svg_2" fill="#F09D51" d="m123.631,0.588l0,17.412l-3.624,0l0,-7.5l-7.668,0l0,7.5l-3.624,0l0,-17.412l3.624,0l0,7.392l7.668,0l0,-7.392l3.624,0zm15.595,4.848c0.928,0 1.772,0.148 2.532,0.444c0.76,0.296 1.412,0.72 1.956,1.272c0.544,0.544 0.964,1.208 1.26,1.992c0.296,0.784 0.444,1.668 0.444,2.652c0,0.984 -0.148,1.872 -0.444,2.664c-0.296,0.784 -0.716,1.452 -1.26,2.004c-0.544,0.552 -1.196,0.976 -1.956,1.272c-0.76,0.296 -1.604,0.444 -2.532,0.444c-0.936,0 -1.788,-0.148 -2.556,-0.444c-0.76,-0.296 -1.412,-0.72 -1.956,-1.272c-0.544,-0.552 -0.968,-1.22 -1.272,-2.004c-0.296,-0.792 -0.444,-1.68 -0.444,-2.664c0,-0.984 0.148,-1.868 0.444,-2.652c0.304,-0.784 0.728,-1.448 1.272,-1.992c0.544,-0.552 1.196,-0.976 1.956,-1.272c0.768,-0.296 1.62,-0.444 2.556,-0.444zm0,10.26c0.944,0 1.644,-0.324 2.1,-0.972c0.456,-0.656 0.684,-1.628 0.684,-2.916c0,-1.28 -0.228,-2.244 -0.684,-2.892c-0.456,-0.656 -1.156,-0.984 -2.1,-0.984c-0.968,0 -1.68,0.328 -2.136,0.984c-0.456,0.648 -0.684,1.612 -0.684,2.892c0,1.288 0.228,2.26 0.684,2.916c0.456,0.648 1.168,0.972 2.136,0.972zm26.332,-10.068l0,12.372l-2.04,0c-0.424,0 -0.696,-0.192 -0.816,-0.576l-0.216,-0.864c-0.248,0.24 -0.504,0.46 -0.768,0.66c-0.264,0.2 -0.548,0.372 -0.852,0.516c-0.296,0.144 -0.62,0.256 -0.972,0.336c-0.344,0.08 -0.72,0.12 -1.128,0.12c-0.672,0 -1.272,-0.116 -1.8,-0.348c-0.52,-0.232 -0.956,-0.556 -1.308,-0.972c-0.352,-0.416 -0.62,-0.912 -0.804,-1.488c-0.184,-0.576 -0.276,-1.208 -0.276,-1.896l0,-7.86l3.312,0l0,7.86c0,0.688 0.156,1.224 0.468,1.608c0.32,0.376 0.792,0.564 1.416,0.564c0.464,0 0.9,-0.1 1.308,-0.3c0.408,-0.208 0.796,-0.488 1.164,-0.84l0,-8.892l3.312,0zm17.625,2.544c-0.088,0.136 -0.18,0.236 -0.276,0.3c-0.088,0.056 -0.212,0.084 -0.372,0.084c-0.16,0 -0.324,-0.04 -0.492,-0.12c-0.168,-0.08 -0.356,-0.164 -0.564,-0.252c-0.208,-0.096 -0.448,-0.184 -0.72,-0.264c-0.264,-0.08 -0.572,-0.12 -0.924,-0.12c-0.536,0 -0.952,0.112 -1.248,0.336c-0.296,0.216 -0.444,0.504 -0.444,0.864c0,0.248 0.084,0.456 0.252,0.624c0.168,0.168 0.388,0.316 0.66,0.444c0.28,0.12 0.596,0.236 0.948,0.348c0.352,0.104 0.712,0.22 1.08,0.348c0.376,0.128 0.74,0.276 1.092,0.444c0.352,0.168 0.664,0.38 0.936,0.636c0.28,0.248 0.504,0.552 0.672,0.912c0.168,0.352 0.252,0.78 0.252,1.284c0,0.6 -0.112,1.156 -0.336,1.668c-0.216,0.504 -0.536,0.94 -0.96,1.308c-0.424,0.368 -0.952,0.656 -1.584,0.864c-0.632,0.208 -1.36,0.312 -2.184,0.312c-0.424,0 -0.844,-0.04 -1.26,-0.12c-0.416,-0.072 -0.812,-0.176 -1.188,-0.312c-0.376,-0.144 -0.728,-0.308 -1.056,-0.492c-0.328,-0.184 -0.612,-0.384 -0.852,-0.6l0.768,-1.236c0.088,-0.144 0.196,-0.256 0.324,-0.336c0.136,-0.08 0.308,-0.12 0.516,-0.12c0.2,0 0.384,0.052 0.552,0.156c0.168,0.096 0.356,0.204 0.564,0.324c0.208,0.112 0.452,0.22 0.732,0.324c0.288,0.096 0.644,0.144 1.068,0.144c0.32,0 0.596,-0.036 0.828,-0.108c0.232,-0.072 0.42,-0.168 0.564,-0.288c0.144,-0.128 0.248,-0.268 0.312,-0.42c0.072,-0.16 0.108,-0.324 0.108,-0.492c0,-0.272 -0.088,-0.492 -0.264,-0.66c-0.168,-0.176 -0.392,-0.328 -0.672,-0.456c-0.272,-0.128 -0.588,-0.244 -0.948,-0.348c-0.36,-0.104 -0.728,-0.22 -1.104,-0.348c-0.368,-0.128 -0.732,-0.28 -1.092,-0.456c-0.352,-0.176 -0.668,-0.396 -0.948,-0.66c-0.272,-0.272 -0.496,-0.604 -0.672,-0.996c-0.168,-0.392 -0.252,-0.868 -0.252,-1.428c0,-0.512 0.1,-0.996 0.3,-1.452c0.2,-0.464 0.5,-0.872 0.9,-1.224c0.4,-0.352 0.896,-0.632 1.488,-0.84c0.6,-0.208 1.292,-0.312 2.076,-0.312c0.88,0 1.68,0.144 2.4,0.432c0.72,0.288 1.312,0.664 1.776,1.128l-0.756,1.176zm17.974,2.184c0,-0.344 -0.048,-0.672 -0.144,-0.984c-0.088,-0.312 -0.232,-0.588 -0.432,-0.828c-0.2,-0.24 -0.452,-0.428 -0.756,-0.564c-0.304,-0.144 -0.668,-0.216 -1.092,-0.216c-0.792,0 -1.412,0.224 -1.86,0.672c-0.448,0.448 -0.74,1.088 -0.876,1.92l5.16,0zm-5.208,1.968c0.104,1.16 0.432,2.008 0.984,2.544c0.56,0.536 1.288,0.804 2.184,0.804c0.456,0 0.848,-0.052 1.176,-0.156c0.336,-0.112 0.628,-0.232 0.876,-0.36c0.256,-0.136 0.484,-0.256 0.684,-0.36c0.208,-0.112 0.412,-0.168 0.612,-0.168c0.256,0 0.456,0.096 0.6,0.288l0.96,1.2c-0.352,0.408 -0.74,0.748 -1.164,1.02c-0.424,0.264 -0.864,0.476 -1.32,0.636c-0.456,0.152 -0.916,0.256 -1.38,0.312c-0.464,0.064 -0.912,0.096 -1.344,0.096c-0.864,0 -1.672,-0.14 -2.424,-0.42c-0.744,-0.288 -1.396,-0.708 -1.956,-1.26c-0.552,-0.56 -0.988,-1.252 -1.308,-2.076c-0.32,-0.824 -0.48,-1.78 -0.48,-2.868c0,-0.84 0.136,-1.632 0.408,-2.376c0.28,-0.744 0.68,-1.392 1.2,-1.944c0.52,-0.552 1.152,-0.988 1.896,-1.308c0.744,-0.328 1.584,-0.492 2.52,-0.492c0.792,0 1.52,0.128 2.184,0.384c0.672,0.248 1.248,0.612 1.728,1.092c0.488,0.48 0.864,1.072 1.128,1.776c0.272,0.696 0.408,1.492 0.408,2.388c0,0.248 -0.012,0.452 -0.036,0.612c-0.024,0.16 -0.064,0.288 -0.12,0.384c-0.056,0.096 -0.132,0.164 -0.228,0.204c-0.096,0.032 -0.22,0.048 -0.372,0.048l-7.416,0z"/>
  <text stroke="null" transform="matrix(1.2535871675676205,0,0,0.975790040237542,-47.11685659304496,5.254194163499809) " xml:space="preserve" text-anchor="start" font-family="'League Gothic', sans-serif" font-size="24" id="svg_3" y="14.32628" x="45.99152" fill-opacity="null" stroke-opacity="null" stroke-width="0" fill="#000000">B e s t</text>
 </g>
</svg>